<svg width="21" height="20" viewBox="0 0 21 20" fill="none" xmlns="http://www.w3.org/2000/svg">
<path d="M9.0398 5.61563C9.72838 6.30427 10.0727 6.64859 10.5006 6.64859C10.9285 6.64859 11.2729 6.30428 11.9615 5.61565L13.4228 4.15437C13.7625 3.81472 13.9324 3.64483 14.109 3.54282C14.9977 3.02977 15.7295 3.53897 16.345 4.15437C16.9604 4.76978 17.4695 5.50167 16.9565 6.39031C16.8545 6.56699 16.6847 6.73682 16.345 7.07647L14.8839 8.53763C14.1952 9.2263 13.8507 9.5708 13.8507 9.99872C13.8507 10.4266 14.195 10.771 14.8837 11.4595L16.345 12.9209C16.6846 13.2605 16.8545 13.4304 16.9565 13.607C17.4695 14.4957 16.9604 15.2276 16.345 15.843C15.7296 16.4585 14.9976 16.9676 14.109 16.4545C13.9324 16.3526 13.7625 16.1828 13.4228 15.843L11.9617 14.382C11.2733 13.6935 10.9285 13.3488 10.5006 13.3488C10.0728 13.3488 9.72805 13.6935 9.03963 14.382L7.57849 15.843C7.2388 16.1828 7.06895 16.3526 6.89226 16.4545C6.00369 16.9676 5.27167 16.4585 4.65632 15.843C4.04088 15.2276 3.53175 14.4957 4.04477 13.607C4.14679 13.4304 4.31663 13.2605 4.65632 12.9209L6.11758 11.4595C6.80622 10.771 7.15055 10.4266 7.15055 9.99872C7.15055 9.5708 6.80605 9.2263 6.1174 8.53763L4.65626 7.07647C4.31662 6.73682 4.14678 6.56699 4.04477 6.39031C3.53172 5.50167 4.04092 4.76978 4.65632 4.15437C5.27173 3.53897 6.00362 3.02977 6.89226 3.54282C7.06894 3.64483 7.23882 3.81472 7.57848 4.15437L9.0398 5.61563Z" stroke="#010F10" stroke-width="1.25" stroke-linecap="round" stroke-linejoin="round"/>
</svg>
